<svg xmlns="http://www.w3.org/2000/svg" xmlns:xlink="http://www.w3.org/1999/xlink" viewBox="0 0 390.37 364.02"><defs><style>.cls-1,.cls-10,.cls-12,.cls-7{fill:none;}.cls-2{clip-path:url(#clip-path);}.cls-3,.cls-5,.cls-9{fill:#fff;}.cls-13,.cls-3,.cls-4,.cls-5,.cls-7{stroke:#231815;}.cls-10,.cls-12,.cls-13,.cls-3,.cls-4,.cls-5,.cls-7{stroke-linecap:round;stroke-linejoin:round;}.cls-12,.cls-13,.cls-3,.cls-4,.cls-7{stroke-width:2.78px;}.cls-4{fill:#dbdcdc;}.cls-10,.cls-5{stroke-width:1.11px;}.cls-6{fill:#231815;}.cls-13,.cls-8{fill:#004989;}.cls-10{stroke:#fff;}.cls-11{opacity:0.5;}.cls-12{stroke:#004989;}.cls-14{fill:#adffff;opacity:0.3;}</style><clipPath id="clip-path" transform="translate(-3.28 -17.84)"><rect class="cls-1" width="410" height="374.31"/></clipPath></defs><g id="Layer_2" data-name="Layer 2"><g id="レイヤー_1" data-name="レイヤー 1"><g class="cls-2"><path class="cls-3" d="M180.19,235.89c-5.29-.9-15.23-4-15.23-4s.11,1.93.36,3.89a16.74,16.74,0,0,1-.36,4.66,7.65,7.65,0,0,1,4.82,3.6c1.15,2.14-1.41,4.6-4,4.78-1.9.12-6.08.73-10.32-.44s-9.3-12.89-9.3-12.89c-1.57-3.85-.83-5.6.63-7.35s6.09-6.4,7.76-6.93l-.76-1.86a20.43,20.43,0,0,1-5.23.67,40.48,40.48,0,0,1-5.11-.09l-2.53,5.52a5.4,5.4,0,0,0-.74,2.47c.18.8,1.51,2.29,2.8,5.82s2,9.61-1.25,11.53-2.3.06-3.8-2.23-3.58-6.66-7.19-9.83-1.65-5.12.51-11.22,1-7.08,3.45-10.39,15.62-2.12,15.62-2.12-11.48-7.6-17.56-6.94c-3.89.42-11.58-1.38-16.28-4.39a18.13,18.13,0,0,1-7.71-9.33c-1.78-6.52,9.38-.59,15.81,1.11,7.14,1.87,17.18,2.29,20.07,2.28s16.94,5.12,25.57,7.11,8.59,1,13.6,4.77,23.06,13.23,24,13.42c0,0,31,17,31.37,18s-19.87,21.7-19.87,21.7l-29.56-21.88A21.59,21.59,0,0,1,180.19,235.89Z" transform="translate(-3.28 -17.84)"/><path class="cls-3" d="M165,240.48a9.92,9.92,0,0,0-2.84-.58c-3.31-.25-3.14.12-3.14.12s-.63-4.38-3.19-7.11" transform="translate(-3.28 -17.84)"/><path class="cls-3" d="M150.3,209.52s3.25,1.22,3.93,1.62" transform="translate(-3.28 -17.84)"/><path class="cls-3" d="M154.42,208.73s-.72,9.14.8,11.37" transform="translate(-3.28 -17.84)"/><path class="cls-4" d="M267.14,297.63l-23.72-16.88c-12.12-8.62-32.74-25.63-32.74-25.63l17.58-29.47,52.54,20.64" transform="translate(-3.28 -17.84)"/><path class="cls-3" d="M178.53,216.13c-4.28.87-4.72,1.92-11.4,2.61s-8.67,0-11.91,1.36-8.75,4.14-12,5.45-7.89,3.44-4.4,7c2.7,2.76,9.49,2.66,14.62,1.73a70.43,70.43,0,0,1,11.64-1c2.29-.06,7.93,2,9.08,2.39,7.94,2.42,13.8,1.49,19.43-2.11" transform="translate(-3.28 -17.84)"/><path class="cls-3" d="M158.9,242.52A14.82,14.82,0,0,0,159,240" transform="translate(-3.28 -17.84)"/><line class="cls-3" x1="140.15" y1="202.13" x2="138.96" y2="199.77"/><path class="cls-5" d="M140.06,231.28s3.32,1.28,5.31,1,.72-3.61.2-5.23" transform="translate(-3.28 -17.84)"/><path class="cls-3" d="M116.34,231.79c-2-2.77-2.88-5-6.39-5.28a16.65,16.65,0,0,0-7.24.5s8.32-4,10.17-6.47c1.24-1.61,2.24-4.16.7-5.08s-9-.7-12.09.07-11.41,4.15-12.8,5.15-15,7-19.57,14.7c-2.84,4.72-4,13.33-4.37,21.91a21.26,21.26,0,0,1-3.89-3.82c-2.08-3.08-8.69-17.8-10.38-22s-6.89-6-10.55-4.9c-3.41,1-1.36,6.39.8,11.09s2.07,9,2.91,12.37a38,38,0,0,0,4.2,10.25c2.38,4.31,2,11.94,4,17.34s18.79,23,21,26.72,6.07,16.21,8.14,27.15S89,372.83,89,372.83l6.69-.87,35.19-2.83c-.13-.05-3.32-7.57-3.82-8.76-3.47-8.33-13.38-35.82-14.52-43.84-1.3-9.17-2-14.6-1.14-16.41,2-4.27,5.67-17.29-3-35.59,0,0-.09,6.39,3.92,3.27,3-2.33,3.12-7.34,3.9-11.25.84-4.21,2.82-9.07,2.07-12.66-.91-4.36-.63-5.24-.63-5.24S118.34,234.57,116.34,231.79Z" transform="translate(-3.28 -17.84)"/><path class="cls-6" d="M34.26,178.74A9.08,9.08,0,0,1,38.81,176l40.48-11a3.83,3.83,0,0,1,4.54,2.41l29.73,86c.63,1.83.63,4.13,0,5.11a8.94,8.94,0,0,1-4.55,2.71l-40.48,11a3.83,3.83,0,0,1-4.55-2.4l-29.72-86C33.61,182,33.62,179.73,34.26,178.74Z" transform="translate(-3.28 -17.84)"/><path class="cls-7" d="M34.26,178.74A9.08,9.08,0,0,1,38.81,176l40.48-11a3.83,3.83,0,0,1,4.54,2.41l29.73,86c.63,1.83.63,4.13,0,5.11a8.94,8.94,0,0,1-4.55,2.71l-40.48,11a3.83,3.83,0,0,1-4.55-2.4l-29.72-86C33.61,182,33.62,179.73,34.26,178.74Z" transform="translate(-3.28 -17.84)"/><polygon class="cls-8" points="63.09 240.63 104.99 229.22 78.58 153.51 36.67 164.93 63.09 240.63"/><path class="cls-9" d="M54.32,175.57c.14.45,1.09.59,2.11.32l7.94-2.16c1-.28,1.72-.88,1.58-1.33s-1.1-.59-2.12-.31l-7.93,2.16C54.88,174.53,54.17,175.12,54.32,175.57Z" transform="translate(-3.28 -17.84)"/><path class="cls-3" d="M85.63,259.12a4,4,0,0,0,4.88,2.38,3.49,3.49,0,0,0,2.61-4.41,4,4,0,0,0-4.88-2.37A3.48,3.48,0,0,0,85.63,259.12Z" transform="translate(-3.28 -17.84)"/><path class="cls-10" d="M41,175.44l-2.79.76c-1.53.41-2.26,2.25-1.63,4.08l3.34,9.66" transform="translate(-3.28 -17.84)"/><line class="cls-10" x1="78.23" y1="247.95" x2="98.35" y2="242.5"/><path class="cls-10" d="M43.09,199.17l23.2,67.11a3.82,3.82,0,0,0,4.54,2.4l5.54-1.5" transform="translate(-3.28 -17.84)"/><path class="cls-9" d="M98,295c-.38-2.85-2.22-6.32-8.61-14.88a56.87,56.87,0,0,0-19.86-16.65c-6-3.09-9.7-7.41-11.28-11.1l-4,3L75.51,302Z" transform="translate(-3.28 -17.84)"/><path class="cls-7" d="M56.39,249.8c1.58,3.69,7.16,10.53,13.17,13.62a56.87,56.87,0,0,1,19.86,16.65c6.39,8.56,8.23,12,8.61,14.88" transform="translate(-3.28 -17.84)"/><path class="cls-3" d="M106.65,256.63c-1.81,8.47,2.23,12.21,2.23,12.21,3.12,1.35,5.26-4.82,6.5-9" transform="translate(-3.28 -17.84)"/><path class="cls-3" d="M107.66,246.88c-1.73,3.55-1.7,5-1,9.75s1.73,6.93,4.51,7.55,3-3.19,4.55-7.35,3.14-10.13,3.93-13.09a5,5,0,0,0-1.19-4.13" transform="translate(-3.28 -17.84)"/><g class="cls-11"><polygon class="cls-9" points="58.88 228.59 63.09 240.63 104.99 229.22 90.51 187.72 58.88 228.59"/></g><path class="cls-3" d="M117.72,238.65s.15,7.16-1.39,10.17-5.09,3.23-9-3.32a12.83,12.83,0,0,1,1-14.48" transform="translate(-3.28 -17.84)"/><line class="cls-12" x1="20.81" y1="146.15" x2="11.91" y2="134.73"/><line class="cls-12" x1="15.04" y1="153.75" x2="1.39" y2="148.45"/><line class="cls-12" x1="29.15" y1="144.5" x2="29.65" y2="129.35"/><path class="cls-4" d="M392.25,380.47c-1.19.59-22.5-109.18-39.29-127.6-18.74-20.55-108.23-13.62-123.33-2.42s-26.56,7.84-41.7,18.74-21.43,36.71-20.15,60.25A214.29,214.29,0,0,1,165,376.89" transform="translate(-3.28 -17.84)"/><path class="cls-3" d="M227.64,212.57c-.58,0,4.41,34.51-3,44.38a7.8,7.8,0,0,1-.84.95c-8.65,8.35,70.38-16.4,71.57-17.59s-22.66-43.25-22.66-43.25Z" transform="translate(-3.28 -17.84)"/><path class="cls-3" d="M238.71,344.15s5.74,31.14,6.35,33.55" transform="translate(-3.28 -17.84)"/><path class="cls-3" d="M151.58,103.5c-.48,14.65,12.36,40.13,14.4,48.27s-6.53,17.49-8.42,23.47c-1.45,4.63,13,6,13,6s3.56,2.85,8.11,11.73c2.62,5.1,7.43,10.49,11.93,15.92,2,2.45,10.89,17.23,22.82,13.41s37.68-15.45,37.68-15.45l1.69-76.27-25.6-38.35s-44-2.6-46.72-2.18S151.58,103.5,151.58,103.5Z" transform="translate(-3.28 -17.84)"/><path class="cls-13" d="M173.17,48c-27.85,23.83-35.87,49.82-25.69,66.37s44.57,13.31,44.57,13.31l13.57,16.6S205.33,123.53,217,122c13.24-1.7,18.62,10.53,15.53,24.67s-10.09,21.13-10.09,21.13,11.89,14.65,9.77,29.85S208,243.12,220.32,260.94c20.85,30.16,42,5.61,58.67,6.7s54.66.74,65-20.18c10.53-21.22,32.75-22.91,28.29-49.59s-37.76-58-48.74-76.38c-10.34-17.33-3.45-44.32-18.86-73.84-10.3-19.74-39.69-30.72-61.66-28C227.23,21.6,193.15,30.85,173.17,48Z" transform="translate(-3.28 -17.84)"/><ellipse class="cls-6" cx="174.85" cy="151.83" rx="3.59" ry="5.97" transform="translate(-41.47 43.21) rotate(-17.89)"/><path class="cls-3" d="M189.47,200s9.87-2.7,11.43-8.36" transform="translate(-3.28 -17.84)"/><path class="cls-3" d="M216.75,153.39c-2.24-4.79-3.78-19.76,1.41-21.45" transform="translate(-3.28 -17.84)"/><path class="cls-7" d="M165.46,88c2.76,16.09,28,23,40.37,27.52" transform="translate(-3.28 -17.84)"/><path class="cls-7" d="M245.21,146.5c10.28,13.12,11.54,52.64,10.58,74.49s14.32,30.34,27,35.14" transform="translate(-3.28 -17.84)"/><path class="cls-7" d="M180.2,72c3.54,17.2,29,29.85,50.76,38.16" transform="translate(-3.28 -17.84)"/><path class="cls-7" d="M270.08,136.62c11.81,27.25,11.27,43.84,16.06,71.24s16.46,30.78,28.3,36" transform="translate(-3.28 -17.84)"/><path class="cls-7" d="M213.66,74.23c3.43,4.37,31.92,23.83,52.75,27.71" transform="translate(-3.28 -17.84)"/><polyline class="cls-4" points="81.98 361.39 75 319.12 115.16 308.42 138.99 356.74"/><circle class="cls-14" cx="181.2" cy="154.14" r="8.67"/></g></g></g></svg>