<svg xmlns="http://www.w3.org/2000/svg" xmlns:xlink="http://www.w3.org/1999/xlink" viewBox="0 0 266.45 48.94"><defs><style>.cls-1{fill:#004989;}.cls-2{fill:url(#名称未設定グラデーション_60);}.cls-3{fill:url(#名称未設定グラデーション_25);}.cls-4{fill:url(#名称未設定グラデーション_144);}.cls-5{fill:#009fe8;}.cls-6{fill:url(#名称未設定グラデーション_137);}.cls-7{fill:url(#名称未設定グラデーション_25-2);}.cls-8{fill:url(#名称未設定グラデーション_60-2);}</style><linearGradient id="名称未設定グラデーション_60" x1="8.38" y1="34.13" x2="4.65" y2="44.96" gradientUnits="userSpaceOnUse"><stop offset="0" stop-color="#171c61"/><stop offset="0.06" stop-color="#142165"/><stop offset="0.4" stop-color="#093879"/><stop offset="0.72" stop-color="#024685"/><stop offset="1" stop-color="#004b89"/></linearGradient><linearGradient id="名称未設定グラデーション_25" x1="11.84" y1="34.18" x2="11.84" y2="48.05" gradientUnits="userSpaceOnUse"><stop offset="0" stop-color="#0071a7"/><stop offset="0.05" stop-color="#1185bd"/><stop offset="0.12" stop-color="#2097d0"/><stop offset="0.19" stop-color="#29a2dc"/><stop offset="0.26" stop-color="#2ca6e0"/><stop offset="0.38" stop-color="#2aa1db"/><stop offset="0.52" stop-color="#2392cd"/><stop offset="0.67" stop-color="#177ab6"/><stop offset="0.83" stop-color="#075996"/><stop offset="0.89" stop-color="#004b89"/></linearGradient><linearGradient id="名称未設定グラデーション_144" x1="22.26" y1="48.8" x2="31.01" y2="20.36" gradientUnits="userSpaceOnUse"><stop offset="0" stop-color="#171c61"/><stop offset="0.01" stop-color="#161e63"/><stop offset="0.12" stop-color="#0c3274"/><stop offset="0.24" stop-color="#054080"/><stop offset="0.4" stop-color="#014887"/><stop offset="0.65" stop-color="#004b89"/><stop offset="0.75" stop-color="#024786"/><stop offset="0.86" stop-color="#083b7b"/><stop offset="0.96" stop-color="#12266a"/><stop offset="1" stop-color="#171c61"/></linearGradient><radialGradient id="名称未設定グラデーション_137" cx="20.77" cy="28.95" r="9.55" gradientUnits="userSpaceOnUse"><stop offset="0" stop-color="#fff11d"/><stop offset="0.01" stop-color="#ffee1b"/><stop offset="0.1" stop-color="#fddb0c"/><stop offset="0.19" stop-color="#fbd003"/><stop offset="0.28" stop-color="#fbcc00"/><stop offset="0.67" stop-color="#f0932e"/><stop offset="0.89" stop-color="#e9652d"/><stop offset="1" stop-color="#e4352b"/></radialGradient><linearGradient id="名称未設定グラデーション_25-2" x1="19.08" y1="27.39" x2="28.65" y2="17.55" xlink:href="#名称未設定グラデーション_25"/><linearGradient id="名称未設定グラデーション_60-2" x1="30.31" y1="3.77" x2="12.61" y2="28.39" gradientTransform="translate(-5.85 14.89) rotate(-34.67)" xlink:href="#名称未設定グラデーション_60"/></defs><g id="Layer_2" data-name="Layer 2"><g id="レイヤー_1" data-name="レイヤー 1"><path class="cls-1" d="M219.39,14.94l-4.93,0,2.43-4.65,3.72,0a.68.68,0,0,1,.69,1Z"/><path class="cls-1" d="M225.63,15l-4.93,0,2.43-4.64h3.72a.69.69,0,0,1,.69,1Z"/><path class="cls-1" d="M181.86,10.12,155.23,10a1,1,0,0,0-.84.47l-1.09,2.09a.7.7,0,0,0,.7,1l17.24.07-13.5,25.81L139.9,39.4a.92.92,0,0,0-.84.47L138,42a.7.7,0,0,0,.7,1l30.28.11a1,1,0,0,0,.83-.47l14.87-28.49C185.66,12.19,184.22,10.13,181.86,10.12Z"/><path class="cls-1" d="M223.55,19l1.09-2.09a.69.69,0,0,0-.7-1L206.7,15.8l2.39-4.56a.7.7,0,0,0-.7-1l-11.83-.05a.94.94,0,0,0-.83.48L180.84,39.16c-1,1.92.43,4,2.79,4l26.65.11a1,1,0,0,0,.84-.48l1.09-2.09a.69.69,0,0,0-.7-1l-17.26-.07,10.59-20.26,17.87.07A1,1,0,0,0,223.55,19Z"/><path class="cls-1" d="M94.75,42.8l-3.13,0a.69.69,0,0,1-.7-1l15.72-29.14a.93.93,0,0,1,.84-.47h3.13a.69.69,0,0,1,.7,1L95.58,42.32A.94.94,0,0,1,94.75,42.8Z"/><path class="cls-1" d="M132.39,42.9l-9.1,0a3.56,3.56,0,0,1-3.64-2.95l-2.49-29.3a.71.71,0,0,1,.78-.73l9.1,0a3.55,3.55,0,0,1,3.64,3l2.49,29.29A.7.7,0,0,1,132.39,42.9Z"/><path class="cls-1" d="M263.33,10.46l-27.43-.11a.94.94,0,0,0-.83.48L234,12.91a.69.69,0,0,0,.69,1L253.2,14,223.07,42.09a.69.69,0,0,0,.53,1.21l11.42.05a1,1,0,0,0,.66-.26l14.84-13.84,0,13.41a.71.71,0,0,0,.77.74h3.83a.88.88,0,0,0,.92-.73l.49-19.08,8.88-8.28C267.49,13.41,266.21,10.47,263.33,10.46Z"/><path class="cls-2" d="M0,41.74l8.7.18c.8,0,4.44-.86,5-8.42-5.83,0-8.22,0-8.22,0A7,7,0,0,1,0,41.74Z"/><path class="cls-3" d="M5.49,33.46h7.85s4.78-1.12,4.85,15.08c-6.86.2-7,.39-7,.39S13.07,35.18,5.49,33.46Z"/><path class="cls-4" d="M35.93,24.05c1.62,1.11,3.85,3.79,2.2,9.09-.18.56-.39,1.13-.64,1.71A23.35,23.35,0,0,1,15.91,48.94H11.18c5.36-8,14.09-21.79,17-26.3,1.41-2.18-2.88-6-3.81-6.67Z"/><path class="cls-5" d="M24.35,16,24,15.74A3,3,0,0,1,24.35,16Z"/><circle class="cls-6" cx="22.2" cy="32.58" r="5.71"/><path class="cls-7" d="M24.05,15.73c-2.75-.94-6.86-.44-13.62,7.2l9.5,6.36c8.16-9.35,14.28-6.36,15.69-5.46Z"/><path class="cls-8" d="M14.48.83H25.66a1.73,1.73,0,0,1,1.73,1.73V32.8a0,0,0,0,1,0,0h-3.3a9.61,9.61,0,0,1-9.61-9.61V.83a0,0,0,0,1,0,0Z" transform="translate(13.28 -8.92) rotate(34.67)"/><path class="cls-1" d="M54.25,19.58a15.35,15.35,0,0,1-1.23,2L51.8,20.39a16.07,16.07,0,0,0,1.5-2.73,13.83,13.83,0,0,0,1-2.84H52.41V13.15h1.87v-3.1h2.08v3.1h1.15v1.67H56.35v1.22a11.16,11.16,0,0,0,1.58,1.47l-.76,1.68a5.31,5.31,0,0,1-.83-.79l0,6.55H54.23Zm7.37,1.2a15,15,0,0,1-3.54,3.36l-1.22-1.48a16.52,16.52,0,0,0,2.33-2.2A14.93,14.93,0,0,0,61,18.1H58v-2h3.61V14.33H60.1a6.62,6.62,0,0,1-1,1.75l-1.68-.86a11.4,11.4,0,0,0,1.07-2.31,12,12,0,0,0,.62-2.58l2.1.19a15.5,15.5,0,0,1-.39,1.9h.83V10h2.26v2.39h3.37v1.92H63.87v1.81l3.8,0v2l-3.17,0A16.16,16.16,0,0,0,65.82,20a22.18,22.18,0,0,0,2.52,2.46l-1.46,1.79a17.62,17.62,0,0,1-3.09-3.6v4.24H61.6Z"/><path class="cls-1" d="M84.56,14.9l-4.6,0a27.25,27.25,0,0,0,.27,2.88A12.45,12.45,0,0,0,80.77,20a8,8,0,0,0,.79,1.63,3.46,3.46,0,0,0,.58.74.43.43,0,0,0,.22.07.27.27,0,0,0,.29-.26q0-.26.18-2.76l1.84.39c-.06,1.48-.14,2.6-.22,3.36a2.25,2.25,0,0,1-.55,1.5,1.72,1.72,0,0,1-1.18.37,2.47,2.47,0,0,1-1.35-.39,6.33,6.33,0,0,1-1.49-1.55,9.48,9.48,0,0,1-1.4-2.87,25,25,0,0,1-.79-5.33l-8.52,0V13l8.43,0c0-.28,0-.66,0-1.16v-1.8h2.31v3h1.92c-.37-.49-.92-1.17-1.63-2l1.68-1A27.5,27.5,0,0,1,84,12.46l-.89.57h1.46ZM78.4,21.61l0,1.94c-.38.11-1.72.29-4,.54s-3.91.41-4.85.48l-.34-2.05c.68,0,1.82-.11,3.43-.25V18H69.85V16.14l7.49,0v1.88H74.9v4Q77.66,21.78,78.4,21.61Z"/><path class="cls-1" d="M64.63,34.69l-9.11,0v-.94a17.14,17.14,0,0,1-2.77,1.43L51.7,33.4a19.05,19.05,0,0,0,4-2.37A11.35,11.35,0,0,0,58.82,28H61a17.33,17.33,0,0,0,7.29,5.24l-1.2,1.92a16.86,16.86,0,0,1-2.5-1.27Zm-.37,7.25q-3.9.42-11,.75l-.34-2L55,40.61c.58-.87,1.12-1.78,1.63-2.73h-4v-2L67.3,36v2l-3.38,0A28.93,28.93,0,0,1,67.3,42l-2.45.91A9.1,9.1,0,0,0,64.26,41.94ZM57,32.76l6.08,0A16.35,16.35,0,0,1,60,30,16,16,0,0,1,57,32.76Zm.79,7.74c2.16-.11,3.87-.22,5.15-.34-.53-.65-1-1.21-1.43-1.67l1.09-.58-3.25,0Q58.59,39.23,57.75,40.5Z"/><path class="cls-1" d="M73.38,42.85H71.31l0-5.59a13.8,13.8,0,0,1-1.85,1.33L68.58,37a12.86,12.86,0,0,0,2.69-2.31A10.18,10.18,0,0,0,73.05,32H69.33V30.12h2V28.05h2.09v2.08h1.93l.44.45a13.28,13.28,0,0,1-2.22,4.25,29,29,0,0,0,2.61,2l-1,1.76c-.66-.51-1.25-1-1.79-1.52Zm11.49-.43-10.16,0v-2l4,0,0-6.23-3.21,0V32.22h3.22l0-4.09h2.34v4.09h3.36v1.93H81.11l0,6.23h3.8Z"/></g></g></svg>